<svg id="Capa_1" data-name="Capa 1" xmlns="http://www.w3.org/2000/svg" viewBox="0 0 298.2 63.38"><defs><style>.cls-1{fill:#fff;}.cls-2{fill:#e15200;}.cls-3{fill:#1d1d1b;}</style></defs><title>Assets Web</title><path class="cls-1" d="M74,13.59a18.39,18.39,0,0,1,2.74-.37c.84,0,1.57-.06,2.18-.06q1.23,0,2.46.06a13.08,13.08,0,0,1,2.28.31l6.77,19.73,7-19.73c.69-.12,1.43-.21,2.21-.28s1.56-.09,2.34-.09c.61,0,1.32,0,2.12.06a19.87,19.87,0,0,1,2.74.37L95.07,45.33c-.78.12-1.6.2-2.46.25s-1.58.06-2.16.06-1.31,0-2.09-.06a13.84,13.84,0,0,1-2.21-.31Z"/><path class="cls-1" d="M111.67,13.53h8.55v31.8a24.88,24.88,0,0,1-8.55,0Z"/><path class="cls-1" d="M133.45,31.49a12.1,12.1,0,0,1-5.38-2.92c-1.3-1.29-1.94-3.23-1.94-5.81a8.78,8.78,0,0,1,3.35-7.32c2.23-1.77,5.28-2.65,9.13-2.65a26.78,26.78,0,0,1,4.74.43,30,30,0,0,1,4.74,1.3,17.36,17.36,0,0,1-.62,3.32,16,16,0,0,1-1.17,3A24.42,24.42,0,0,0,143,19.77a15.29,15.29,0,0,0-3.75-.46A6.82,6.82,0,0,0,136,20,2.19,2.19,0,0,0,134.86,22a2.14,2.14,0,0,0,.83,1.91,10.41,10.41,0,0,0,2.37,1L141.57,26a17.56,17.56,0,0,1,3.1,1.2A8.58,8.58,0,0,1,147,29a7.36,7.36,0,0,1,1.54,2.58,11.16,11.16,0,0,1,.55,3.75,9.69,9.69,0,0,1-.95,4.25A9.82,9.82,0,0,1,145.41,43a13.76,13.76,0,0,1-4.4,2.28,19.15,19.15,0,0,1-5.84.83c-1,0-1.89,0-2.71-.09s-1.61-.17-2.36-.31-1.51-.32-2.25-.52-1.54-.48-2.4-.8A17.43,17.43,0,0,1,126,41a20,20,0,0,1,1.2-3.29,23.93,23.93,0,0,0,3.84,1.2,17.31,17.31,0,0,0,3.78.4,12.92,12.92,0,0,0,1.88-.15,7,7,0,0,0,1.87-.55,4.47,4.47,0,0,0,1.45-1.05,2.87,2.87,0,0,0-.31-3.81,8.3,8.3,0,0,0-2.49-1.14Z"/><path class="cls-1" d="M153.5,13.53a25.93,25.93,0,0,1,8.73,0V30.38a17.57,17.57,0,0,0,.4,4.15,6.19,6.19,0,0,0,1.23,2.59,4.56,4.56,0,0,0,2.06,1.35,9.3,9.3,0,0,0,2.89.4,14.31,14.31,0,0,0,3.82-.43V13.53a25.67,25.67,0,0,1,4.3-.37,26.13,26.13,0,0,1,4.37.37V44.1a41.94,41.94,0,0,1-5.2,1.32,34.3,34.3,0,0,1-6.73.65,36.81,36.81,0,0,1-6-.49,11.82,11.82,0,0,1-5.08-2.1,10.77,10.77,0,0,1-3.47-4.67,21.52,21.52,0,0,1-1.29-8.18Z"/><path class="cls-1" d="M203.56,24.42a5,5,0,0,0-.49-2.4,3.7,3.7,0,0,0-1.35-1.45,5.76,5.76,0,0,0-2.12-.7,18.49,18.49,0,0,0-2.8-.19A21.8,21.8,0,0,0,189.72,21a17,17,0,0,1-1.29-3,11.92,11.92,0,0,1-.43-3.38,32.71,32.71,0,0,1,5.41-1.36,33.21,33.21,0,0,1,5.05-.43c4.26,0,7.6,1,10,3.08s3.6,5.33,3.6,9.84V44.16a51.32,51.32,0,0,1-5.23,1.29,35.54,35.54,0,0,1-6.95.62,27.76,27.76,0,0,1-5.75-.56,12.21,12.21,0,0,1-4.49-1.84,8.73,8.73,0,0,1-2.89-3.32,11.19,11.19,0,0,1-1-5,9.16,9.16,0,0,1,1.26-5,9.66,9.66,0,0,1,3.26-3.19,14.44,14.44,0,0,1,4.46-1.73,24.19,24.19,0,0,1,4.92-.52c1.19,0,2.5.06,3.93.19Zm0,6.33q-.74-.12-1.59-.21a15.11,15.11,0,0,0-1.54-.09,9.06,9.06,0,0,0-4.77,1.07A3.77,3.77,0,0,0,193.91,35a3.93,3.93,0,0,0,.67,2.46,4.1,4.1,0,0,0,1.64,1.26,6.79,6.79,0,0,0,2,.49c.72.06,1.35.09,1.88.09a11.63,11.63,0,0,0,1.85-.15l1.59-.28Z"/><path class="cls-1" d="M233.14,13.53h8.55v31.8a25.76,25.76,0,0,1-4.3.37,25.45,25.45,0,0,1-4.25-.37Z"/><path class="cls-1" d="M222.38,0A26,26,0,0,0,218,.37v45a26.17,26.17,0,0,0,4.3.38,26.53,26.53,0,0,0,4.37-.38V.37A25.79,25.79,0,0,0,222.38,0"/><path class="cls-1" d="M249.64,20.17h-4l-.31-1.23,11.51-14.7h1.41v9.29h7.44a15.67,15.67,0,0,1,.25,1.66c0,.49.06,1,.06,1.54s0,1.13-.06,1.66a17.18,17.18,0,0,1-.25,1.78h-7.44V32.66a12.68,12.68,0,0,0,.3,3.07,4.64,4.64,0,0,0,.9,1.85,2.92,2.92,0,0,0,1.44.92,7.22,7.22,0,0,0,2,.25,10,10,0,0,0,1.82-.16l1.57-.27a12.35,12.35,0,0,1,.61,2.43,16.22,16.22,0,0,1,.19,2.24c0,.45,0,.83,0,1.14s-.06.61-.1.89a25,25,0,0,1-5.84.68q-5.59,0-8.55-2.61t-3-8.52Z"/><path class="cls-2" d="M95.28,6.64a4.83,4.83,0,1,1-4.83-4.82,4.83,4.83,0,0,1,4.83,4.82"/><path class="cls-2" d="M242.24,6.64a4.83,4.83,0,1,1-4.82-4.82,4.82,4.82,0,0,1,4.82,4.82"/><path class="cls-1" d="M295.62,13.19l-2,0a23,23,0,0,0-4.18.37l-6.25,24.91-6.77-24.91a13,13,0,0,0-2.33-.31c-.87,0-1.7-.06-2.53-.06l-2,0a14.35,14.35,0,0,0-2.5.34L274,36.94l1.36,4.85a9.13,9.13,0,0,0,1.12,2.67,11.08,11.08,0,0,0,1.61,2,7.28,7.28,0,0,0,1.83,1.29,5.14,5.14,0,0,0,1.1.38l-.76,3.63a10.84,10.84,0,0,1-1.11,2.77A4.55,4.55,0,0,1,277.82,56a3.35,3.35,0,0,1-1.44.56,12.37,12.37,0,0,1-1.48.09,11.54,11.54,0,0,1-1.85-.15,11.74,11.74,0,0,1-1.47-.34,19.48,19.48,0,0,0-.83,2.55,11.07,11.07,0,0,0-.34,2.8V62a2.76,2.76,0,0,0,.06.52,25.7,25.7,0,0,0,2.74.59,20.7,20.7,0,0,0,3.1.21,16.41,16.41,0,0,0,3.45-.34,8.22,8.22,0,0,0,2.89-1.19,8.57,8.57,0,0,0,2.31-2.4,15.8,15.8,0,0,0,1.75-3.88L298.2,13.53a16.39,16.39,0,0,0-2.58-.34"/><path class="cls-1" d="M83.31,56.53h3.48l0,3.06a11.83,11.83,0,0,1,0,1.37,3.92,3.92,0,0,1-.26,1.12,1.86,1.86,0,0,1-.57.79,1.66,1.66,0,0,1-.94.37l-1.17.1c-.39,0-.74,0-1,0a5.38,5.38,0,0,1-2.33-.45A3.61,3.61,0,0,1,79,61.63a5.55,5.55,0,0,1-.8-2.06,15.19,15.19,0,0,1-.23-2.75,13.6,13.6,0,0,1,.25-2.8,5.29,5.29,0,0,1,.81-2,3.42,3.42,0,0,1,1.47-1.18,5.92,5.92,0,0,1,2.24-.38,13.34,13.34,0,0,1,1.39.07c.48,0,.93.1,1.34.17s.94.13,1.39.21l-.08,1.79-1.29-.15-1.22-.11c-.44,0-.85,0-1.22,0a3.57,3.57,0,0,0-1.44.25,2,2,0,0,0-.92.79,3.83,3.83,0,0,0-.49,1.4A13.46,13.46,0,0,0,80,56.93,15.24,15.24,0,0,0,80.13,59a4,4,0,0,0,.46,1.42,2,2,0,0,0,.89.82,3.62,3.62,0,0,0,1.47.26l.59,0,.6,0,.24-.06a.36.36,0,0,0,.21-.2,1.6,1.6,0,0,0,.15-.48,5.47,5.47,0,0,0,.06-.92V58.3H83.31Z"/><path class="cls-1" d="M98.87,58.8H96.56l0,4.38h-2l0-12.47H99a4.62,4.62,0,0,1,3.16,1,3.89,3.89,0,0,1,1.11,3.07,4.16,4.16,0,0,1-.54,2.25,3.54,3.54,0,0,1-1.55,1.32l2.13,4.85h-2.13l-1.87-4.4Zm2.29-4.07a2.16,2.16,0,0,0-.57-1.6,2.08,2.08,0,0,0-1.54-.57H96.56V57h2.52a1.88,1.88,0,0,0,1.57-.66,2.56,2.56,0,0,0,.51-1.61"/><path class="cls-1" d="M112.52,52.51a2.25,2.25,0,0,1,.27-.67,2.15,2.15,0,0,1,.51-.58,2.66,2.66,0,0,1,.77-.4,3.31,3.31,0,0,1,1.05-.16h1.67l3,12.48h-2l-.76-2.57h-4.38l-.63,2.57h-2.11Zm2.7,0a.61.61,0,0,0-.57.27,1.66,1.66,0,0,0-.26.6l-1.28,5.39h3.57Z"/><path class="cls-1" d="M129.07,59.36l0,3.82h-2l0-12.48h4.35a3.81,3.81,0,0,1,4.2,4.28,4.43,4.43,0,0,1-1.08,3.23,4.09,4.09,0,0,1-3.12,1.15Zm2.31-1.86a1.84,1.84,0,0,0,1.63-.73,3.17,3.17,0,0,0,.52-1.86,2.62,2.62,0,0,0-.52-1.74,2,2,0,0,0-1.63-.61h-2.31V57.5Z"/><polygon class="cls-1" points="150.15 57.79 145.05 57.79 145.07 63.18 143.06 63.18 143.05 50.71 145.05 50.71 145.05 55.91 150.15 55.91 150.15 50.71 152.15 50.71 152.17 63.18 150.17 63.18 150.15 57.79"/><polygon class="cls-1" points="160.25 50.7 162.29 50.7 162.3 63.18 160.27 63.18 160.25 50.7"/><path class="cls-1" d="M177.74,63l-1.23.18-1.12.13c-.39,0-.75.05-1.06.05a5.25,5.25,0,0,1-2.25-.42,3.22,3.22,0,0,1-1.4-1.26,5.51,5.51,0,0,1-.71-2,16.6,16.6,0,0,1-.2-2.79A15.71,15.71,0,0,1,170,54a5.48,5.48,0,0,1,.77-2,3.13,3.13,0,0,1,1.41-1.15,5.45,5.45,0,0,1,2.15-.37q.54,0,1.14.06c.39,0,.77.09,1.11.16l1.18.19-.08,1.79-1.19-.13-1-.08c-.34,0-.64,0-.88,0a3,3,0,0,0-1.33.25,1.85,1.85,0,0,0-.83.81,4,4,0,0,0-.43,1.43,13.93,13.93,0,0,0-.13,2.1,14.74,14.74,0,0,0,.11,2,3.7,3.7,0,0,0,.41,1.37,1.83,1.83,0,0,0,.85.78,3.51,3.51,0,0,0,1.41.24l.82,0,1-.08,1.19-.12Z"/><path class="cls-1" d="M194.65,53a5.43,5.43,0,0,1,.08-.92,2.1,2.1,0,0,1,.28-.73,1.45,1.45,0,0,1,.55-.49,1.9,1.9,0,0,1,.91-.17H198l2.83,9.76L203,53.08a4.37,4.37,0,0,1,.78-1.71,1.77,1.77,0,0,1,1.4-.67H207l0,12.48H205L205,53a.4.4,0,0,0-.21.19,2.85,2.85,0,0,0-.19.39l-2.13,7.23a4.82,4.82,0,0,1-.62,1.37,1.19,1.19,0,0,1-.65.51h-1.37l-2.91-9.74c-.09,0-.15.06-.17.19s0,.29,0,.48v9.57h-2.07Z"/><path class="cls-1" d="M215.36,52.13a1.5,1.5,0,0,1,1.5-1.5h5.89a6,6,0,0,1,.05.77c0,.12,0,.26,0,.4a2.11,2.11,0,0,1,0,.38h-5.48v3.6h4.37a2,2,0,0,1,.06.37c0,.14,0,.27,0,.4s0,.26,0,.4a2,2,0,0,1-.06.38h-4.37v4.3h5.63a6,6,0,0,1,0,.77c0,.12,0,.26,0,.4a2.11,2.11,0,0,1,0,.38h-7.54Z"/><path class="cls-1" d="M230.66,63.18l0-12.47h4.13a5.93,5.93,0,0,1,2.39.41,3.54,3.54,0,0,1,1.51,1.21,5,5,0,0,1,.78,1.93,13.19,13.19,0,0,1,.23,2.57,15.23,15.23,0,0,1-.21,2.65,5.35,5.35,0,0,1-.75,2,3.44,3.44,0,0,1-1.5,1.26,5.68,5.68,0,0,1-2.43.44Zm6.93-6.45a12.87,12.87,0,0,0-.11-1.72,3.74,3.74,0,0,0-.42-1.31,2.15,2.15,0,0,0-.85-.84,3,3,0,0,0-1.44-.3h-2.13v8.75h2.13a2.6,2.6,0,0,0,1.44-.36,2.42,2.42,0,0,0,.85-1,4.66,4.66,0,0,0,.42-1.45,14.05,14.05,0,0,0,.11-1.78"/><polygon class="cls-1" points="247.16 50.7 249.2 50.7 249.22 63.18 247.18 63.18 247.16 50.7"/><path class="cls-1" d="M258.92,52.51a1.82,1.82,0,0,1,.27-.67,2.15,2.15,0,0,1,.51-.58,2.66,2.66,0,0,1,.77-.4,3.29,3.29,0,0,1,1-.16h1.68l3,12.48h-2l-.76-2.57h-4.38l-.63,2.57h-2.11Zm2.7,0a.61.61,0,0,0-.57.27,1.51,1.51,0,0,0-.26.6l-1.28,5.39h3.57Z"/><circle class="cls-1" cx="31.58" cy="31.58" r="31.58"/><path class="cls-3" d="M12.15,19.59a21.71,21.71,0,0,1,3.24-.44c1,0,1.86-.07,2.58-.07,1,0,1.94,0,2.92.07a14.67,14.67,0,0,1,2.69.37l8,23.34,8.29-23.34a25.3,25.3,0,0,1,2.62-.33c.92-.07,1.84-.11,2.77-.11.72,0,1.56,0,2.51.07a23.25,23.25,0,0,1,3.23.44L37,57.14a23.89,23.89,0,0,1-2.91.29c-1,0-1.87.08-2.55.08s-1.55,0-2.47-.08a14.4,14.4,0,0,1-2.62-.36Z"/><circle class="cls-2" cx="31.58" cy="11.37" r="5.71"/></svg>