<svg id="Capa_1" data-name="Capa 1" xmlns="http://www.w3.org/2000/svg" viewBox="0 0 63.17 63.38"><defs><style>.cls-1{fill:#fff;}.cls-2{fill:#1d1d1b;}.cls-3{fill:#e15200;}</style></defs><title>Assets Web</title><circle class="cls-1" cx="31.58" cy="31.58" r="31.58"/><path class="cls-2" d="M12.15,19.59a21.71,21.71,0,0,1,3.24-.44c1,0,1.86-.07,2.58-.07,1,0,1.94,0,2.92.07a14.67,14.67,0,0,1,2.69.37l8,23.34,8.29-23.34a25.3,25.3,0,0,1,2.62-.33c.92-.07,1.84-.11,2.77-.11.72,0,1.56,0,2.51.07a23.25,23.25,0,0,1,3.23.44L37,57.14a23.89,23.89,0,0,1-2.91.29c-1,0-1.87.08-2.55.08s-1.55,0-2.47-.08a14.4,14.4,0,0,1-2.62-.36Z"/><circle class="cls-3" cx="31.58" cy="11.37" r="5.71"/></svg>